{"title":"District 9[2009]DvDRip[Eng]-Uvall","uid":5145165,"size":1267964202,"categoryP":"video","categoryS":"movies","magnet":"?xt=urn:btih:19cbd9d55653d5c6a356afe223470ded49cc3b05&amp;dn=District+9%5B2009%5DDvDRip%5BEng%5D-Uvall&amp;tr=udp%3A%2F%2Ftracker.openbittorrent.com%3A80&amp;tr=udp%3A%2F%2Fopen.demonii.com%3A1337&amp;tr=udp%3A%2F%2Ftracker.coppersurfer.tk%3A6969&amp;tr=udp%3A%2F%2Fexodus.desync.com%3A6969","seeders":0,"leechers":1,"uploader":"Uvall","files":5,"time":1257221257,"description":"~~~~~~~~~~~~~~~~~~~~~~~~~~~~~~~~~~~~~~~~~~~~~~~~~~~~~~~~~~~~~~~~~~~\nTitle: District 9[2009]\n~~~~~~~~~~~~~~~~~~~~~~~~~~~~~~~~~~~~~~~~~~~~~~~~~~~~~~~~~~~~~~~~~~~\n~~~~~~~~~~~~~~~~~~~~~~~~~~~~~~~~~~~~~~~~~~~~~~~~~~~~~~~~~~~~~~~~~~~\nRelease Notes\n\nGenre: Action | Drama | Sci-Fi | Thriller\n\nRated: R for bloody violence and pervasive language.\n\nMovie Information: http://www.imdb.com/title/tt1136608/\n\nPlot: An extraterrestrial race forced to live in slum-like \n      conditions on Earth suddenly finds a kindred spirit in a \n      government agent who is exposed to their biotechnology.\n\nFormat                           : AVI\nFormat/Info                      : Audio Video Interleave\nFile size                        : 1.17 GiB\nDuration                         : 1h 47mn\nOverall bit rate                 : 1 562 Kbps\nMovie name                       : District 9[2009]DvDRip[Eng]-Uvall\nWriting application              : Lavf52.33.0\n\nVideo\nFormat                           : MPEG-4 Visual\nFormat profile                   : Simple@L3\nFormat settings, BVOP            : No\nFormat settings, QPel            : No\nFormat settings, GMC             : No warppoints\nFormat settings, Matrix          : Default (H.263)\nCodec ID                         : XVID\nCodec ID/Hint                    : XviD\nDuration                         : 1h 47mn\nBit rate                         : 1 359 Kbps\nWidth                            : 704 pixels\nHeight                           : 388 pixels\nDisplay aspect ratio             : 16:9\nFrame rate                       : 23.976 fps\nResolution                       : 24 bits\nColorimetry                      : 4:2:0\nScan type                        : Progressive\nBits/(Pixel*Frame)               : 0.207\nStream size                      : 1.02 GiB (87%)\nWriting library                  : XviD 1.2.1 (UTC 2008-12-04)\n\nAudio\nFormat                           : AC-3\nFormat/Info                      : Audio Coding 3\nCodec ID                         : 2000\nDuration                         : 1h 47mn\nBit rate mode                    : Constant\nBit rate                         : 192 Kbps\nChannel(s)                       : 2 channels\nChannel positions                : L R\nSampling rate                    : 48.0 KHz\nStream size                      : 147 MiB (12%)\nAlignment                        : Aligned on interleaves\nInterleave, duration             : 32 ms (0.77 video frame)\nInterleave, preload duration     : 32 ms\n~~~~~~~~~~~~~~~~~~~~~~~~~~~~~~~~~~~~~~~~~~~~~~~~~~~~~~~~~~~~~~~~~~~\n~~~~~~~~~~~~~~~~~~~~~~~~~~~~~~~~~~~~~~~~~~~~~~~~~~~~~~~~~~~~~~~~~~~\nPosted By: Uvall\n~~~~~~~~~~~~~~~~~~~~~~~~~~~~~~~~~~~~~~~~~~~~~~~~~~~~~~~~~~~~~~~~~~~","torrent":{"xt":"urn:btih:19cbd9d55653d5c6a356afe223470ded49cc3b05","amp;dn":"District+9%5B2009%5DDvDRip%5BEng%5D-Uvall","amp;tr":["udp%3A%2F%2Ftracker.openbittorrent.com%3A80","udp%3A%2F%2Fopen.demonii.com%3A1337","udp%3A%2F%2Ftracker.coppersurfer.tk%3A6969","udp%3A%2F%2Fexodus.desync.com%3A6969"],"infoHash":"19cbd9d55653d5c6a356afe223470ded49cc3b05","infoHashBuffer":{"type":"Buffer","data":[25,203,217,213,86,83,213,198,163,86,175,226,35,71,13,237,73,204,59,5]},"announce":[],"urlList":[]}}